<?xml version="1.0" encoding="utf-8"?>
<!-- Generator: Adobe Illustrator 23.0.2, SVG Export Plug-In . SVG Version: 6.00 Build 0)  -->
<svg version="1.1" id="Layer_1" xmlns="http://www.w3.org/2000/svg" xmlns:xlink="http://www.w3.org/1999/xlink" x="0px" y="0px"
	 viewBox="0 0 30.8 30.8" style="enable-background:new 0 0 30.8 30.8;" xml:space="preserve">
<style type="text/css">
	.st0{fill:#FFFFFF;}
</style>
<g>
	<path class="st0" d="M15.4,28.8c3.6,0,7-1.4,9.5-3.9s3.9-5.9,3.9-9.5c0-3.6-1.4-7-3.9-9.5C22.4,3.4,19,2,15.4,2s-7,1.4-9.5,3.9
		c-5.2,5.2-5.2,13.7,0,19C8.5,27.4,11.8,28.8,15.4,28.8 M15.4,30.8c-3.9,0-7.9-1.5-10.9-4.5c-6-6-6-15.8,0-21.8c3-3,7-4.5,10.9-4.5
		c3.9,0,7.9,1.5,10.9,4.5c6,6,6,15.8,0,21.8C23.3,29.3,19.4,30.8,15.4,30.8L15.4,30.8L15.4,30.8z"/>
	<polyline class="st0" points="10.5,12 11.9,10.6 20.4,19.1 19,20.5 10.5,12 	"/>
	<polyline class="st0" points="11.9,20.5 10.5,19.1 19,10.6 20.4,12 11.9,20.5 	"/>
</g>
</svg>
