<?xml version="1.0" encoding="utf-8"?>
<!-- Generator: Adobe Illustrator 23.0.2, SVG Export Plug-In . SVG Version: 6.00 Build 0)  -->
<svg version="1.1" id="Layer_1" xmlns="http://www.w3.org/2000/svg" xmlns:xlink="http://www.w3.org/1999/xlink" x="0px" y="0px"
	 viewBox="0 0 30.8 30.8" style="enable-background:new 0 0 30.8 30.8;" xml:space="preserve">
<style type="text/css">
	.st0{fill:#59558B;}
</style>
<path class="st0" d="M15.4,28.8c7.4,0,13.4-6,13.4-13.4C28.8,8,22.8,2,15.4,2S2,8,2,15.4C2,22.8,8,28.8,15.4,28.8 M15.4,30.8
	C6.9,30.8,0,23.9,0,15.4C0,6.9,6.9,0,15.4,0c8.5,0,15.4,6.9,15.4,15.4C30.8,23.9,23.9,30.8,15.4,30.8L15.4,30.8L15.4,30.8z"/>
<polyline class="st0" points="9.3,16.5 9.3,14.5 21.3,14.5 21.3,16.5 9.3,16.5 "/>
</svg>
