<?xml version="1.0" encoding="utf-8"?>
<!-- Generator: Adobe Illustrator 23.0.2, SVG Export Plug-In . SVG Version: 6.00 Build 0)  -->
<svg version="1.1" id="Layer_1" xmlns="http://www.w3.org/2000/svg" xmlns:xlink="http://www.w3.org/1999/xlink" x="0px" y="0px"
	 viewBox="0 0 18 18" style="enable-background:new 0 0 18 18;" xml:space="preserve">
<style type="text/css">
	.st0{fill-rule:evenodd;clip-rule:evenodd;fill:#CFCED6;}
</style>
<path class="st0" d="M9,0C4,0,0,4,0,9c0,5,4,9,9,9c5,0,9-4,9-9C18,4,14,0,9,0z M9.2,12.1c-0.1,0.1-0.3,0.2-0.5,0.2
	c-0.2,0-0.4-0.1-0.5-0.2C8,12,7.9,11.8,7.9,11.6c0-0.2,0.1-0.4,0.2-0.5c0.1-0.1,0.3-0.2,0.5-0.2c0.2,0,0.4,0.1,0.5,0.2
	c0.1,0.1,0.2,0.3,0.2,0.5C9.4,11.8,9.4,12,9.2,12.1z M10.7,7.7c-0.2,0.3-0.4,0.5-0.7,0.9C9.7,8.8,9.5,9.1,9.3,9.2
	C9.2,9.4,9.1,9.7,9.1,9.9C9,10,9,10.1,8.9,10.1c-0.1,0.1-0.2,0.1-0.3,0.1c-0.1,0-0.2,0-0.3-0.1S8.3,9.9,8.3,9.8
	c0-0.4,0.1-0.7,0.2-0.9C8.6,8.6,8.8,8.3,9.1,8c0.2-0.2,0.3-0.4,0.4-0.6c0.1-0.2,0.1-0.3,0.1-0.5c0-0.2-0.1-0.4-0.2-0.5
	C9.2,6.2,9,6.2,8.7,6.2C8.5,6.2,8.3,6.2,8,6.3C7.8,6.4,7.6,6.6,7.3,6.8C7.1,6.8,7,6.9,6.9,6.9c-0.1,0-0.2-0.1-0.3-0.2
	C6.5,6.6,6.4,6.5,6.4,6.4c0-0.2,0.1-0.4,0.2-0.5c0.3-0.2,0.6-0.4,1-0.6c0.4-0.1,0.8-0.2,1.2-0.2c0.4,0,0.8,0.1,1.1,0.2
	c0.3,0.1,0.6,0.3,0.7,0.6c0.2,0.2,0.3,0.5,0.3,0.8C10.9,7.1,10.8,7.4,10.7,7.7z"/>
</svg>
