<?xml version="1.0" encoding="utf-8"?>
<!-- Generator: Adobe Illustrator 23.0.2, SVG Export Plug-In . SVG Version: 6.00 Build 0)  -->
<svg version="1.1" id="Layer_1" xmlns="http://www.w3.org/2000/svg" xmlns:xlink="http://www.w3.org/1999/xlink" x="0px" y="0px"
	 viewBox="0 0 153.5 64.9" style="enable-background:new 0 0 153.5 64.9;" xml:space="preserve">
<style type="text/css">
	.st0{fill:#FBC159;}
	.st1{fill:#FFFFFF;}
</style>
<g>
	<g>
		<path class="st0" d="M69.6,8.3c-2.3,0-4.4-1.8-4.4-4.1c0-2.3,2.1-4.2,4.4-4.2c2.4,0,4.3,1.8,4.3,4.2C73.9,6.5,72,8.3,69.6,8.3"/>
		<path class="st0" d="M85.7,8.3c-2.3,0-4.4-1.8-4.4-4.1c0-2.3,2.1-4.2,4.4-4.2C88.1,0,90,1.8,90,4.2C90,6.5,88.1,8.3,85.7,8.3"/>
	</g>
	<path class="st1" d="M22.1,45.9L10.8,30.2v24H0V13.9h10.8l14,20.6l14-20.6h10.8v40.2H38.9v-24L27.6,45.9H22.1z"/>
	<path class="st1" d="M96.5,23.6H68.9v6h27.7v9.6H68.9v5.4h27.7v9.6H58.1V13.9h38.5V23.6z"/>
	<path class="st1" d="M111.9,60.8l-7.2,4.2h-2.4V44.6h4.6c0.8-0.5,1.4-1.4,1.7-2.6c0.3-1.2,0.5-2.9,0.6-4.9l1.2-23.1h37.2v30.6h6
		v16.2l-7.2,4.2h-2.4V54.2h-32V60.8z M136.7,44.6v-21h-16.4l-0.7,13c-0.1,1.6-0.2,3.1-0.4,4.4c-0.2,1.3-0.5,2.5-0.9,3.6H136.7z"/>
</g>
</svg>
