<?xml version="1.0" encoding="utf-8"?>
<!-- Generator: Adobe Illustrator 23.0.2, SVG Export Plug-In . SVG Version: 6.00 Build 0)  -->
<svg version="1.1" id="Layer_1" xmlns="http://www.w3.org/2000/svg" xmlns:xlink="http://www.w3.org/1999/xlink" x="0px" y="0px"
	 viewBox="0 0 20.5 20.5" style="enable-background:new 0 0 20.5 20.5;" xml:space="preserve">
<style type="text/css">
	.st0{fill:#59558B;}
</style>
<g>
	<path class="st0" d="M10.3,18.5c4.6,0,8.3-3.7,8.3-8.3c0-4.6-3.7-8.3-8.3-8.3C5.7,2,2,5.7,2,10.3C2,14.8,5.7,18.5,10.3,18.5
		 M10.3,20.5C4.6,20.5,0,15.9,0,10.3C0,4.6,4.6,0,10.3,0c5.7,0,10.3,4.6,10.3,10.3C20.5,15.9,15.9,20.5,10.3,20.5L10.3,20.5
		L10.3,20.5z"/>
	<polygon class="st0" points="10.3,13.6 6.3,8.2 14.3,8.2 10.3,13.6 	"/>
</g>
</svg>
