<?xml version="1.0" encoding="utf-8"?>
<!-- Generator: Adobe Illustrator 23.0.2, SVG Export Plug-In . SVG Version: 6.00 Build 0)  -->
<svg version="1.1" id="Layer_1" xmlns="http://www.w3.org/2000/svg" xmlns:xlink="http://www.w3.org/1999/xlink" x="0px" y="0px"
	 viewBox="0 0 20 19.5" style="enable-background:new 0 0 20 19.5;" xml:space="preserve">
<style type="text/css">
	.st0{fill:#E34D63;}
	.st1{fill:#59558B;}
</style>
<g>
	<polyline class="st0" points="12.6,13.4 14,12 20,18 18.6,19.4 12.6,13.4 	"/>
	<path class="st1" d="M8,14c3.3,0,6-2.7,6-6c0-3.3-2.7-6-6-6C4.7,2,2,4.7,2,8C2,11.3,4.7,14,8,14 M8,16c-4.4,0-8-3.6-8-8s3.6-8,8-8
		c4.4,0,8,3.6,8,8S12.4,16,8,16L8,16L8,16z"/>
</g>
</svg>
