<?xml version="1.0" encoding="utf-8"?>
<!-- Generator: Adobe Illustrator 23.0.2, SVG Export Plug-In . SVG Version: 6.00 Build 0)  -->
<svg version="1.1" id="Layer_1" xmlns="http://www.w3.org/2000/svg" xmlns:xlink="http://www.w3.org/1999/xlink" x="0px" y="0px"
	 viewBox="0 0 15 15" style="enable-background:new 0 0 15 15;" xml:space="preserve">
<style type="text/css">
	.st0{fill:#59558B;}
</style>
<path class="st0" d="M15,8.6c0,0.1-0.1,0.3-0.3,0.4l-1.8,0.3c-0.1,0.3-0.2,0.6-0.4,0.9c0.3,0.5,0.7,0.9,1,1.3
	c0.1,0.1,0.1,0.2,0.1,0.2c0,0.1,0,0.2-0.1,0.2c-0.2,0.3-1.6,1.7-1.9,1.7c-0.1,0-0.2,0-0.3-0.1l-1.3-1.1c-0.3,0.1-0.6,0.3-0.9,0.4
	c-0.1,0.6-0.1,1.2-0.3,1.8c0,0.2-0.2,0.3-0.4,0.3H6.4c-0.2,0-0.3-0.1-0.4-0.3l-0.3-1.8c-0.3-0.1-0.6-0.2-0.9-0.4l-1.4,1
	c-0.1,0.1-0.2,0.1-0.2,0.1c-0.1,0-0.2,0-0.2-0.1c-0.5-0.5-1.2-1.1-1.6-1.6c-0.1-0.1-0.1-0.1-0.1-0.2c0-0.1,0-0.2,0.1-0.2
	c0.3-0.4,0.7-0.9,1-1.3c-0.2-0.3-0.3-0.6-0.4-1L0.3,8.9C0.1,8.9,0,8.7,0,8.6V6.4c0-0.1,0.1-0.3,0.3-0.4l1.8-0.3
	c0.1-0.3,0.2-0.6,0.4-0.9C2.1,4.4,1.8,4,1.4,3.5C1.4,3.5,1.3,3.4,1.3,3.3c0-0.1,0-0.2,0.1-0.2C1.6,2.7,3,1.3,3.3,1.3
	c0.1,0,0.2,0,0.3,0.1l1.4,1c0.3-0.1,0.6-0.3,0.9-0.4c0.1-0.6,0.1-1.2,0.3-1.8C6.1,0.1,6.2,0,6.4,0h2.2c0.2,0,0.3,0.1,0.4,0.3
	l0.3,1.8c0.3,0.1,0.6,0.2,0.9,0.4l1.4-1c0.1-0.1,0.1-0.1,0.2-0.1c0.1,0,0.2,0,0.2,0.1c0.5,0.5,1.2,1.1,1.6,1.7
	c0.1,0.1,0.1,0.1,0.1,0.2c0,0.1,0,0.2-0.1,0.2c-0.3,0.4-0.7,0.9-1,1.3c0.2,0.3,0.3,0.6,0.4,1l1.8,0.3c0.2,0,0.3,0.2,0.3,0.4V8.6
	L15,8.6z M7.5,5C6.1,5,5,6.1,5,7.5C5,8.9,6.1,10,7.5,10C8.9,10,10,8.9,10,7.5C10,6.1,8.9,5,7.5,5L7.5,5z"/>
</svg>
