<?xml version="1.0" encoding="utf-8"?>
<!-- Generator: Adobe Illustrator 23.0.2, SVG Export Plug-In . SVG Version: 6.00 Build 0)  -->
<svg version="1.1" id="Layer_1" xmlns="http://www.w3.org/2000/svg" xmlns:xlink="http://www.w3.org/1999/xlink" x="0px" y="0px"
	 viewBox="0 0 37 40" style="enable-background:new 0 0 37 40;" xml:space="preserve">
<style type="text/css">
	.st0{fill:#59558B;}
</style>
<g>
	<g>
		<path class="st0" d="M28,32V8.1V2.7V0h-2v1.8l-1.4,1.2L21,0l-3.1,3.1L15,0l-3.9,3.1L8,0L4.3,3.1L2,1.4V0H0v2.4v8.4V32
			c0,3.7,2.2,7.7,7.4,8c-0.1,0-0.3,0-0.4,0v0h5.7c3.9,0,8.7,0,12,0c1.5,0,2.7,0,3.3,0c2.2,0,7.4-1.9,8.7-6H37v-2H28z M12,38
			c-1.6,0-3,0-3.9,0c-5.7,0-6-5-6-6V3.9l1.2,0.8l1.3,0.9l1.2-1l2.3-1.9l1.8,1.8L11,5.7l1.4-1.1l2.5-1.9l1.6,1.7l1.4,1.5l1.5-1.4
			l1.8-1.8l2.2,1.9l1.3,1.1L26,4.5l0,0V32H15C15,32,14.4,35.6,12,38z M28,38l-3.3,0c-2.8,0-6.7,0-10.1,0c0.9-1.3,1.6-2.7,2-4h18
			C33.1,36.7,29.2,38,28,38z"/>
		<path class="st0" d="M18.2,17.4c0.6,0,1.1-0.2,1.5-0.7c0.3-0.5,0.5-1.2,0.5-2.1s-0.2-1.6-0.5-2.1c-0.3-0.5-0.8-0.7-1.5-0.7
			c-0.6,0-1.1,0.2-1.5,0.7c-0.3,0.5-0.5,1.2-0.5,2.1c0,0.9,0.2,1.6,0.5,2.1C17,17.2,17.5,17.4,18.2,17.4z M17.4,13.1
			c0.2-0.3,0.4-0.5,0.8-0.5c0.4,0,0.6,0.2,0.8,0.5c0.2,0.3,0.2,0.8,0.2,1.5c0,0.7-0.1,1.2-0.2,1.5c-0.2,0.3-0.4,0.5-0.8,0.5
			c-0.4,0-0.6-0.2-0.8-0.5c-0.2-0.3-0.2-0.8-0.2-1.5S17.2,13.4,17.4,13.1z"/>
		<rect x="7" y="27" class="st0" width="6" height="2"/>
		<polygon class="st0" points="21,22 7,22 6.9,24 21,24 		"/>
		<path class="st0" d="M13.5,17.4c0.6,0,1.1-0.2,1.5-0.7c0.3-0.5,0.5-1.2,0.5-2.1s-0.2-1.6-0.5-2.1c-0.3-0.5-0.8-0.7-1.5-0.7
			c-0.6,0-1.1,0.2-1.5,0.7c-0.3,0.5-0.5,1.2-0.5,2.1c0,0.9,0.2,1.6,0.5,2.1C12.4,17.2,12.8,17.4,13.5,17.4z M12.7,13.1
			c0.2-0.3,0.4-0.5,0.8-0.5c0.4,0,0.6,0.2,0.8,0.5c0.2,0.3,0.2,0.8,0.2,1.5c0,0.7-0.1,1.2-0.2,1.5c-0.2,0.3-0.4,0.5-0.8,0.5
			c-0.4,0-0.6-0.2-0.8-0.5c-0.2-0.3-0.2-0.8-0.2-1.5S12.6,13.4,12.7,13.1z"/>
		<path class="st0" d="M8.8,17.4c0.6,0,1.1-0.2,1.5-0.7c0.3-0.5,0.5-1.2,0.5-2.1s-0.2-1.6-0.5-2.1c-0.3-0.5-0.8-0.7-1.5-0.7
			s-1.1,0.2-1.5,0.7c-0.3,0.5-0.5,1.2-0.5,2.1c0,0.9,0.2,1.6,0.5,2.1C7.7,17.2,8.2,17.4,8.8,17.4z M8.1,13.1
			c0.2-0.3,0.4-0.5,0.8-0.5c0.4,0,0.6,0.2,0.8,0.5c0.2,0.3,0.2,0.8,0.2,1.5c0,0.7-0.1,1.2-0.2,1.5c-0.2,0.3-0.4,0.5-0.8,0.5
			c-0.4,0-0.6-0.2-0.8-0.5c-0.2-0.3-0.2-0.8-0.2-1.5S7.9,13.4,8.1,13.1z"/>
	</g>
</g>
</svg>
