<?xml version="1.0" encoding="utf-8"?>
<!-- Generator: Adobe Illustrator 23.0.2, SVG Export Plug-In . SVG Version: 6.00 Build 0)  -->
<svg version="1.1" id="Layer_1" xmlns="http://www.w3.org/2000/svg" xmlns:xlink="http://www.w3.org/1999/xlink" x="0px" y="0px"
	 viewBox="0 0 43 40.5" style="enable-background:new 0 0 43 40.5;" xml:space="preserve">
<style type="text/css">
	.st0{fill:#59558B;}
</style>
<g>
	<path class="st0" d="M33.3,7.5c1.5,0,2.7-1.2,2.7-2.7C36,3.2,34.8,2,33.3,2c-1.5,0-2.8,1.2-2.8,2.7C30.5,6.3,31.7,7.5,33.3,7.5
		 M33.3,9.5c-2.6,0-4.7-2.1-4.7-4.7c0-2.6,2.1-4.7,4.7-4.7C35.9,0,38,2.1,38,4.7C38,7.4,35.9,9.5,33.3,9.5L33.3,9.5L33.3,9.5z"/>
	<path class="st0" d="M23,24.9l-2-0.4c0,0,1.7-8.4,2-10c0.3-1.6,1.6-3,4-3c2.4,0,10.2,0,12,0c1.8,0,4,1.2,4,4c0,2.8,0,11,0,11h-2
		v-11c0-1.9-1.7-2-2-2H27c-1.4,0-1.9,0.8-2,1.4C24.6,16.5,23,24.9,23,24.9L23,24.9"/>
	<path class="st0" d="M37,23.5h2c0,0,0,13.8,0,15c0,0.3,0,0.6-0.1,0.9L37,38.8c0,0,0-0.1,0-0.3V23.5L37,23.5 M37.3,38.5l0.6,1.9
		c-0.3,0.1-0.6,0.1-0.9,0.1c-1.6,0-7.3,0-8,0v-2h8C37.2,38.5,37.3,38.5,37.3,38.5 M29.2,38.5l-0.6,1.9c-0.5-0.1-1-0.5-1.3-1l1.7-1.1
		C29,38.4,29.1,38.5,29.2,38.5 M29,38.5h-2c0-1.2,0-20,0-20h2V38.5 M37.9,40.4L37.5,39l1.4,0.4C38.7,39.9,38.5,40.2,37.9,40.4
		L37.9,40.4L37.9,40.4z M37.5,39L37,38.8c0-0.1,0.2-0.3,0.3-0.3L37.5,39L37.5,39L37.5,39z M29,40.5c-0.1,0-0.3,0-0.4-0.1l0.4-1.3
		V40.5L29,40.5L29,40.5z M29,39.1v-0.6h-0.3l0.2-0.1c0,0,0,0.1,0,0.1l0,0c0.1,0,0.2,0,0.2,0L29,39.1L29,39.1L29,39.1z M27.3,39.4
		c-0.2-0.3-0.3-0.6-0.3-0.9h1.7L27.3,39.4L27.3,39.4L27.3,39.4z"/>
	<path class="st0" d="M9.8,7.5c1.5,0,2.7-1.2,2.7-2.7c0-1.5-1.2-2.7-2.7-2.7C8.2,2,7,3.2,7,4.7C7,6.3,8.2,7.5,9.8,7.5 M9.8,9.5
		C7.1,9.5,5,7.4,5,4.7C5,2.1,7.1,0,9.8,0c2.6,0,4.7,2.1,4.7,4.7C14.5,7.4,12.4,9.5,9.8,9.5L9.8,9.5L9.8,9.5z"/>
	<path class="st0" d="M20,24.9L20,24.9c0,0-1.7-8.4-2-10c-0.1-0.6-0.6-1.4-2-1.4H4c-0.3,0-2,0.1-2,2v11H0c0,0,0-8.2,0-11
		c0-2.8,2.2-4,4-4c1.8,0,9.6,0,12,0c2.4,0,3.7,1.4,4,3c0.3,1.6,2,10,2,10L20,24.9L20,24.9L20,24.9z"/>
	<path class="st0" d="M6,23.5L6,23.5v15c0,0.2,0,0.3,0,0.3l-1.9,0.6C4,39.1,4,38.8,4,38.5c0-1.2,0-15,0-15H6L6,23.5L6,23.5z
		 M5.7,38.5c0,0,0.1,0,0.3,0h8v2c-0.7,0-6.4,0-8,0c-0.4,0-0.7,0-0.9-0.1L5.7,38.5L5.7,38.5L5.7,38.5z M13.8,38.5
		c0.1,0,0.2-0.1,0.2-0.2l1.7,1.1c-0.3,0.5-0.8,0.8-1.3,1L13.8,38.5L13.8,38.5L13.8,38.5z M14,38.5v-20h2c0,0,0,18.8,0,20H14L14,38.5
		L14,38.5z M5.1,40.4c-0.5-0.2-0.8-0.5-1-1L5.5,39L5.1,40.4L5.1,40.4L5.1,40.4z M5.5,39l0.2-0.5c0.1,0,0.3,0.2,0.3,0.3L5.5,39
		L5.5,39L5.5,39z M14,40.5v-1.4l0.4,1.3C14.3,40.5,14.1,40.5,14,40.5L14,40.5L14,40.5z M14,39.1l-0.2-0.6c0,0,0.1,0,0.2,0V39.1
		L14,39.1L14,39.1z M15.7,39.4l-1.5-0.9H16C16,38.8,15.9,39.2,15.7,39.4L15.7,39.4L15.7,39.4z M14.3,38.5H14c0-0.1,0-0.1,0-0.1
		L14.3,38.5L14.3,38.5L14.3,38.5z"/>
</g>
</svg>
