<?xml version="1.0" encoding="utf-8"?>
<!-- Generator: Adobe Illustrator 23.0.2, SVG Export Plug-In . SVG Version: 6.00 Build 0)  -->
<svg version="1.1" id="Layer_1" xmlns="http://www.w3.org/2000/svg" xmlns:xlink="http://www.w3.org/1999/xlink" x="0px" y="0px"
	 viewBox="0 0 44 38" style="enable-background:new 0 0 44 38;" xml:space="preserve">
<style type="text/css">
	.st0{fill:#59558B;}
</style>
<g>
	<g>
		<path class="st0" d="M40.3,30c1.1-2.5,1.7-5.2,1.7-8c0-11-9-20-20-20C11,2,2,11,2,22c0,2.8,0.6,5.5,1.7,8H40.3 M41.6,32H2.4
			C0.9,29,0,25.6,0,22C0,9.9,9.8,0,22,0c12.2,0,22,9.9,22,22C44,25.6,43.1,29,41.6,32L41.6,32L41.6,32z"/>
		<path class="st0" d="M8.6,22h-2c0-8.5,6.9-15.4,15.4-15.4c4.7,0,8.9,2.1,11.7,5.4l-1.5,1.3c-2.6-3-6.3-4.7-10.2-4.7
			C14.6,8.6,8.6,14.6,8.6,22"/>
		<path class="st0" d="M22,24c1.1,0,2-0.9,2-2c0-1.1-0.9-2-2-2c-1.1,0-2,0.9-2,2C20,23.1,20.9,24,22,24 M22,26c-2.2,0-4-1.8-4-4
			c0-2.2,1.8-4,4-4c2.2,0,4,1.8,4,4C26,24.2,24.2,26,22,26L22,26L22,26z"/>
		<polyline class="st0" points="25.7,21.9 25,20 36,16 36.7,17.9 25.7,21.9 		"/>
		<polyline class="st0" points="7,38 7,36 36,36 36,38 7,38 		"/>
	</g>
</g>
</svg>
